<svg width="1200" height="800" viewBox="0 0 1200 800" fill="none" xmlns="http://www.w3.org/2000/svg">
  <rect width="1200" height="800" rx="48" fill="#F6EFE1"/>
  <circle cx="240" cy="188" r="122" fill="#D7E9D7"/>
  <circle cx="970" cy="160" r="104" fill="#F4D7A2"/>
  <path d="M140 540C140 454.948 208.948 386 294 386H906C991.052 386 1060 454.948 1060 540V638C1060 684.392 1022.39 722 976 722H224C177.608 722 140 684.392 140 638V540Z" fill="#14532D"/>
  <path d="M257 430C257 376.98 299.98 334 353 334H847C900.02 334 943 376.98 943 430V470H257V430Z" fill="#1F7A3A"/>
  <circle cx="382" cy="528" r="66" fill="#F97316"/>
  <circle cx="521" cy="560" r="74" fill="#DC2626"/>
  <circle cx="678" cy="528" r="70" fill="#84CC16"/>
  <circle cx="829" cy="560" r="78" fill="#EAB308"/>
  <path d="M521 468C521 429.34 552.34 398 591 398V398C629.66 398 661 429.34 661 468V476H521V468Z" fill="#6B8E23"/>
  <path d="M678 450C678 426.804 696.804 408 720 408V408C743.196 408 762 426.804 762 450V476H678V450Z" fill="#4D7C0F"/>
  <path d="M362 452C362 430.461 379.461 413 401 413V413C422.539 413 440 430.461 440 452V476H362V452Z" fill="#9A3412"/>
</svg>
